{
  "accessors": [
    {
      "name": "Body1_1_0_positions",
      "componentType": 5126,
      "count": 320,
      "min": [
        -81.55391693115234,
        -85.75086975097656,
        -71.32923126220703
      ],
      "max": [
        81.55391693115234,
        85.75086975097656,
        71.3292465209961
      ],
      "type": "VEC3",
      "bufferView": 0,
      "byteOffset": 0
    },
    {
      "name": "Body1_1_0_normals",
      "componentType": 5126,
      "count": 320,
      "min": [
        -1,
        -0.982247531414032,
        -0.910309374332428
      ],
      "max": [
        0.9504104852676392,
        0.982247531414032,
        0.910309374332428
      ],
      "type": "VEC3",
      "bufferView": 1,
      "byteOffset": 0
    },
    {
      "name": "Body1_1_0_texcoords",
      "componentType": 5126,
      "count": 320,
      "min": [
        -2.3717079162597656,
        -0.8776019811630249
      ],
      "max": [
        2.3717079162597656,
        2.875
      ],
      "type": "VEC2",
      "bufferView": 2,
      "byteOffset": 0
    },
    {
      "name": "Body1_1_0_indices",
      "componentType": 5123,
      "count": 360,
      "min": [
        0
      ],
      "max": [
        319
      ],
      "type": "SCALAR",
      "bufferView": 3,
      "byteOffset": 0
    },
    {
      "name": "Body2_1_0_positions",
      "componentType": 5126,
      "count": 320,
      "min": [
        -81.55391693115234,
        -85.75086975097656,
        -71.32923126220703
      ],
      "max": [
        81.55391693115234,
        85.75086975097656,
        71.3292465209961
      ],
      "type": "VEC3",
      "bufferView": 0,
      "byteOffset": 3840
    },
    {
      "name": "Body2_1_0_normals",
      "componentType": 5126,
      "count": 320,
      "min": [
        -1,
        -0.9993200898170471,
        -0.910309374332428
      ],
      "max": [
        1,
        0.9993200898170471,
        0.910309374332428
      ],
      "type": "VEC3",
      "bufferView": 1,
      "byteOffset": 3840
    },
    {
      "name": "Body2_1_0_texcoords",
      "componentType": 5126,
      "count": 320,
      "min": [
        -2.3717079162597656,
        -0.8776019811630249
      ],
      "max": [
        2.3717079162597656,
        2.875
      ],
      "type": "VEC2",
      "bufferView": 2,
      "byteOffset": 2560
    },
    {
      "name": "Body2_1_0_indices",
      "componentType": 5123,
      "count": 360,
      "min": [
        0
      ],
      "max": [
        319
      ],
      "type": "SCALAR",
      "bufferView": 3,
      "byteOffset": 720
    },
    {
      "name": "Body3_1_0_positions",
      "componentType": 5126,
      "count": 320,
      "min": [
        -81.55391693115234,
        -85.75086975097656,
        -71.32923126220703
      ],
      "max": [
        81.55391693115234,
        85.75086975097656,
        71.3292465209961
      ],
      "type": "VEC3",
      "bufferView": 0,
      "byteOffset": 7680
    },
    {
      "name": "Body3_1_0_normals",
      "componentType": 5126,
      "count": 320,
      "min": [
        -1,
        -0.9993200898170471,
        -0.9103089570999146
      ],
      "max": [
        1,
        0.9993200898170471,
        0.9103082418441772
      ],
      "type": "VEC3",
      "bufferView": 1,
      "byteOffset": 7680
    },
    {
      "name": "Body3_1_0_texcoords",
      "componentType": 5126,
      "count": 320,
      "min": [
        -2.3717079162597656,
        -0.8776019811630249
      ],
      "max": [
        2.3717079162597656,
        2.875
      ],
      "type": "VEC2",
      "bufferView": 2,
      "byteOffset": 5120
    },
    {
      "name": "Body3_1_0_indices",
      "componentType": 5123,
      "count": 360,
      "min": [
        0
      ],
      "max": [
        319
      ],
      "type": "SCALAR",
      "bufferView": 3,
      "byteOffset": 1440
    }
  ],
  "asset": {
    "generator": "obj2gltf",
    "version": "2.0"
  },
  "buffers": [
    {
      "name": "pentagonal delta orb",
      "byteLength": 32880,
      "uri": "data:application/octet-stream;base64,"
    }
  ],
  "bufferViews": [
    {
      "name": "bufferView_0",
      "buffer": 0,
      "byteLength": 11520,
      "byteOffset": 0,
      "byteStride": 12,
      "target": 34962
    },
    {
      "name": "bufferView_1",
      "buffer": 0,
      "byteLength": 11520,
      "byteOffset": 11520,
      "byteStride": 12,
      "target": 34962
    },
    {
      "name": "bufferView_2",
      "buffer": 0,
      "byteLength": 7680,
      "byteOffset": 23040,
      "byteStride": 8,
      "target": 34962
    },
    {
      "name": "bufferView_3",
      "buffer": 0,
      "byteLength": 2160,
      "byteOffset": 30720,
      "target": 34963
    }
  ],
  "materials": [
    {
      "name": "Paek_(Beige)",
      "pbrMetallicRoughness": {
        "baseColorFactor": [
          0.5,
          0.5,
          0.5,
          1
        ],
        "metallicFactor": 0,
        "roughnessFactor": 1
      },
      "emissiveFactor": [
        0,
        0,
        0
      ],
      "alphaMode": "OPAQUE",
      "doubleSided": false
    },
    {
      "name": "Paper_(White)",
      "pbrMetallicRoughness": {
        "baseColorFactor": [
          0.5,
          0.5,
          0.5,
          1
        ],
        "metallicFactor": 0,
        "roughnessFactor": 1
      },
      "emissiveFactor": [
        0,
        0,
        0
      ],
      "alphaMode": "OPAQUE",
      "doubleSided": false
    },
    {
      "name": "Fabric_(Light_Brown)",
      "pbrMetallicRoughness": {
        "baseColorFactor": [
          0.5,
          0.5,
          0.5,
          1
        ],
        "metallicFactor": 0,
        "roughnessFactor": 1
      },
      "emissiveFactor": [
        0,
        0,
        0
      ],
      "alphaMode": "OPAQUE",
      "doubleSided": false
    }
  ],
  "meshes": [
    {
      "name": "Body1_1",
      "primitives": [
        {
          "attributes": {
            "POSITION": 0,
            "NORMAL": 1,
            "TEXCOORD_0": 2
          },
          "indices": 3,
          "material": 0,
          "mode": 4
        }
      ]
    },
    {
      "name": "Body2_1",
      "primitives": [
        {
          "attributes": {
            "POSITION": 4,
            "NORMAL": 5,
            "TEXCOORD_0": 6
          },
          "indices": 7,
          "material": 1,
          "mode": 4
        }
      ]
    },
    {
      "name": "Body3_1",
      "primitives": [
        {
          "attributes": {
            "POSITION": 8,
            "NORMAL": 9,
            "TEXCOORD_0": 10
          },
          "indices": 11,
          "material": 2,
          "mode": 4
        }
      ]
    }
  ],
  "nodes": [
    {
      "name": "Body1",
      "mesh": 0
    },
    {
      "name": "Body2",
      "mesh": 1
    },
    {
      "name": "Body3",
      "mesh": 2
    }
  ],
  "scene": 0,
  "scenes": [
    {
      "nodes": [
        0,
        1,
        2
      ]
    }
  ]
}
