{
  "accessors": [
    {
      "name": "Body1_1_0_positions",
      "componentType": 5126,
      "count": 160,
      "min": [
        -60.676273345947266,
        -52.9969482421875,
        -39.429832458496094
      ],
      "max": [
        60.676273345947266,
        63.79881286621094,
        39.429832458496094
      ],
      "type": "VEC3",
      "bufferView": 0,
      "byteOffset": 0
    },
    {
      "name": "Body1_1_0_normals",
      "componentType": 5126,
      "count": 160,
      "min": [
        -0.950408935546875,
        -0.9993200898170471,
        -0.7946547865867615
      ],
      "max": [
        1,
        0.9510559439659119,
        0.7946547865867615
      ],
      "type": "VEC3",
      "bufferView": 1,
      "byteOffset": 0
    },
    {
      "name": "Body1_1_0_texcoords",
      "componentType": 5126,
      "count": 160,
      "min": [
        -2.3717079162597656,
        -0.8776019811630249
      ],
      "max": [
        2.3717079162597656,
        2.875
      ],
      "type": "VEC2",
      "bufferView": 2,
      "byteOffset": 0
    },
    {
      "name": "Body1_1_0_indices",
      "componentType": 5123,
      "count": 180,
      "min": [
        0
      ],
      "max": [
        159
      ],
      "type": "SCALAR",
      "bufferView": 3,
      "byteOffset": 0
    },
    {
      "name": "Body2_1_0_positions",
      "componentType": 5126,
      "count": 160,
      "min": [
        -60.676273345947266,
        -52.9969482421875,
        -39.429832458496094
      ],
      "max": [
        50.40309524536133,
        63.79881286621094,
        39.429832458496094
      ],
      "type": "VEC3",
      "bufferView": 0,
      "byteOffset": 1920
    },
    {
      "name": "Body2_1_0_normals",
      "componentType": 5126,
      "count": 160,
      "min": [
        -1,
        -0.9993200898170471,
        -0.7946547865867615
      ],
      "max": [
        0.950408935546875,
        0.9510559439659119,
        0.7946547865867615
      ],
      "type": "VEC3",
      "bufferView": 1,
      "byteOffset": 1920
    },
    {
      "name": "Body2_1_0_texcoords",
      "componentType": 5126,
      "count": 160,
      "min": [
        -2.3717079162597656,
        -0.8776019811630249
      ],
      "max": [
        2.3717079162597656,
        2.875
      ],
      "type": "VEC2",
      "bufferView": 2,
      "byteOffset": 1280
    },
    {
      "name": "Body2_1_0_indices",
      "componentType": 5123,
      "count": 180,
      "min": [
        0
      ],
      "max": [
        159
      ],
      "type": "SCALAR",
      "bufferView": 3,
      "byteOffset": 360
    },
    {
      "name": "Body3_1_0_positions",
      "componentType": 5126,
      "count": 160,
      "min": [
        -60.676273345947266,
        -52.9969482421875,
        -39.429832458496094
      ],
      "max": [
        60.676273345947266,
        42.87543487548828,
        39.429832458496094
      ],
      "type": "VEC3",
      "bufferView": 0,
      "byteOffset": 3840
    },
    {
      "name": "Body3_1_0_normals",
      "componentType": 5126,
      "count": 160,
      "min": [
        -1,
        -0.9993200898170471,
        -0.7946547865867615
      ],
      "max": [
        1,
        0.8506510853767395,
        0.7946547865867615
      ],
      "type": "VEC3",
      "bufferView": 1,
      "byteOffset": 3840
    },
    {
      "name": "Body3_1_0_texcoords",
      "componentType": 5126,
      "count": 160,
      "min": [
        -2.3717079162597656,
        -0.8776019811630249
      ],
      "max": [
        2.3717079162597656,
        2.875
      ],
      "type": "VEC2",
      "bufferView": 2,
      "byteOffset": 2560
    },
    {
      "name": "Body3_1_0_indices",
      "componentType": 5123,
      "count": 180,
      "min": [
        0
      ],
      "max": [
        159
      ],
      "type": "SCALAR",
      "bufferView": 3,
      "byteOffset": 720
    }
  ],
  "asset": {
    "generator": "obj2gltf",
    "version": "2.0"
  },
  "buffers": [
    {
      "name": "pentagonal jewel",
      "byteLength": 16440,
      "uri": "data:application/octet-stream;base64,"
    }
  ],
  "bufferViews": [
    {
      "name": "bufferView_0",
      "buffer": 0,
      "byteLength": 5760,
      "byteOffset": 0,
      "byteStride": 12,
      "target": 34962
    },
    {
      "name": "bufferView_1",
      "buffer": 0,
      "byteLength": 5760,
      "byteOffset": 5760,
      "byteStride": 12,
      "target": 34962
    },
    {
      "name": "bufferView_2",
      "buffer": 0,
      "byteLength": 3840,
      "byteOffset": 11520,
      "byteStride": 8,
      "target": 34962
    },
    {
      "name": "bufferView_3",
      "buffer": 0,
      "byteLength": 1080,
      "byteOffset": 15360,
      "target": 34963
    }
  ],
  "materials": [
    {
      "name": "Paper_(White)",
      "pbrMetallicRoughness": {
        "baseColorFactor": [
          0.5,
          0.5,
          0.5,
          1
        ],
        "metallicFactor": 0,
        "roughnessFactor": 1
      },
      "emissiveFactor": [
        0,
        0,
        0
      ],
      "alphaMode": "OPAQUE",
      "doubleSided": false
    },
    {
      "name": "Fabric_(Light_Brown)",
      "pbrMetallicRoughness": {
        "baseColorFactor": [
          0.5,
          0.5,
          0.5,
          1
        ],
        "metallicFactor": 0,
        "roughnessFactor": 1
      },
      "emissiveFactor": [
        0,
        0,
        0
      ],
      "alphaMode": "OPAQUE",
      "doubleSided": false
    },
    {
      "name": "Paek_(Beige)",
      "pbrMetallicRoughness": {
        "baseColorFactor": [
          0.5,
          0.5,
          0.5,
          1
        ],
        "metallicFactor": 0,
        "roughnessFactor": 1
      },
      "emissiveFactor": [
        0,
        0,
        0
      ],
      "alphaMode": "OPAQUE",
      "doubleSided": false
    }
  ],
  "meshes": [
    {
      "name": "Body1_1",
      "primitives": [
        {
          "attributes": {
            "POSITION": 0,
            "NORMAL": 1,
            "TEXCOORD_0": 2
          },
          "indices": 3,
          "material": 0,
          "mode": 4
        }
      ]
    },
    {
      "name": "Body2_1",
      "primitives": [
        {
          "attributes": {
            "POSITION": 4,
            "NORMAL": 5,
            "TEXCOORD_0": 6
          },
          "indices": 7,
          "material": 1,
          "mode": 4
        }
      ]
    },
    {
      "name": "Body3_1",
      "primitives": [
        {
          "attributes": {
            "POSITION": 8,
            "NORMAL": 9,
            "TEXCOORD_0": 10
          },
          "indices": 11,
          "material": 2,
          "mode": 4
        }
      ]
    }
  ],
  "nodes": [
    {
      "name": "Body1",
      "mesh": 0
    },
    {
      "name": "Body2",
      "mesh": 1
    },
    {
      "name": "Body3",
      "mesh": 2
    }
  ],
  "scene": 0,
  "scenes": [
    {
      "nodes": [
        0,
        1,
        2
      ]
    }
  ]
}
