{
  "accessors": [
    {
      "name": "Body1_1_0_positions",
      "componentType": 5126,
      "count": 128,
      "min": [
        -50,
        -50,
        -53.03300857543945
      ],
      "max": [
        50,
        50,
        53.03300857543945
      ],
      "type": "VEC3",
      "bufferView": 0,
      "byteOffset": 0
    },
    {
      "name": "Body1_1_0_normals",
      "componentType": 5126,
      "count": 128,
      "min": [
        -1,
        -1,
        -0.7071083784103394
      ],
      "max": [
        1,
        1,
        0.7071083784103394
      ],
      "type": "VEC3",
      "bufferView": 1,
      "byteOffset": 0
    },
    {
      "name": "Body1_1_0_texcoords",
      "componentType": 5126,
      "count": 128,
      "min": [
        -2.3717079162597656,
        -0.8776019811630249
      ],
      "max": [
        2.3717079162597656,
        2.875
      ],
      "type": "VEC2",
      "bufferView": 2,
      "byteOffset": 0
    },
    {
      "name": "Body1_1_0_indices",
      "componentType": 5123,
      "count": 144,
      "min": [
        0
      ],
      "max": [
        127
      ],
      "type": "SCALAR",
      "bufferView": 3,
      "byteOffset": 0
    },
    {
      "name": "Body2_1_0_positions",
      "componentType": 5126,
      "count": 128,
      "min": [
        -50,
        -50,
        -35.35533905029297
      ],
      "max": [
        50,
        50,
        35.35533905029297
      ],
      "type": "VEC3",
      "bufferView": 0,
      "byteOffset": 1536
    },
    {
      "name": "Body2_1_0_normals",
      "componentType": 5126,
      "count": 128,
      "min": [
        -1,
        -1,
        -0.7071083784103394
      ],
      "max": [
        1,
        1,
        0.7071083784103394
      ],
      "type": "VEC3",
      "bufferView": 1,
      "byteOffset": 1536
    },
    {
      "name": "Body2_1_0_texcoords",
      "componentType": 5126,
      "count": 128,
      "min": [
        -2.3717079162597656,
        -0.8776019811630249
      ],
      "max": [
        2.3717079162597656,
        2.875
      ],
      "type": "VEC2",
      "bufferView": 2,
      "byteOffset": 1024
    },
    {
      "name": "Body2_1_0_indices",
      "componentType": 5123,
      "count": 144,
      "min": [
        0
      ],
      "max": [
        127
      ],
      "type": "SCALAR",
      "bufferView": 3,
      "byteOffset": 288
    },
    {
      "name": "Body3_1_0_positions",
      "componentType": 5126,
      "count": 128,
      "min": [
        -50,
        -50,
        -53.03300857543945
      ],
      "max": [
        50,
        50,
        53.03300857543945
      ],
      "type": "VEC3",
      "bufferView": 0,
      "byteOffset": 3072
    },
    {
      "name": "Body3_1_0_normals",
      "componentType": 5126,
      "count": 128,
      "min": [
        -1,
        -1,
        -0.7071083784103394
      ],
      "max": [
        1,
        1,
        0.7071083784103394
      ],
      "type": "VEC3",
      "bufferView": 1,
      "byteOffset": 3072
    },
    {
      "name": "Body3_1_0_texcoords",
      "componentType": 5126,
      "count": 128,
      "min": [
        -2.3717079162597656,
        -0.8776019811630249
      ],
      "max": [
        2.3717079162597656,
        2.875
      ],
      "type": "VEC2",
      "bufferView": 2,
      "byteOffset": 2048
    },
    {
      "name": "Body3_1_0_indices",
      "componentType": 5123,
      "count": 144,
      "min": [
        0
      ],
      "max": [
        127
      ],
      "type": "SCALAR",
      "bufferView": 3,
      "byteOffset": 576
    }
  ],
  "asset": {
    "generator": "obj2gltf",
    "version": "2.0"
  },
  "buffers": [
    {
      "name": "square jewel",
      "byteLength": 13152,
      "uri": "data:application/octet-stream;base64,"
    }
  ],
  "bufferViews": [
    {
      "name": "bufferView_0",
      "buffer": 0,
      "byteLength": 4608,
      "byteOffset": 0,
      "byteStride": 12,
      "target": 34962
    },
    {
      "name": "bufferView_1",
      "buffer": 0,
      "byteLength": 4608,
      "byteOffset": 4608,
      "byteStride": 12,
      "target": 34962
    },
    {
      "name": "bufferView_2",
      "buffer": 0,
      "byteLength": 3072,
      "byteOffset": 9216,
      "byteStride": 8,
      "target": 34962
    },
    {
      "name": "bufferView_3",
      "buffer": 0,
      "byteLength": 864,
      "byteOffset": 12288,
      "target": 34963
    }
  ],
  "materials": [
    {
      "name": "Paper_(White)",
      "pbrMetallicRoughness": {
        "baseColorFactor": [
          0.5,
          0.5,
          0.5,
          1
        ],
        "metallicFactor": 0,
        "roughnessFactor": 1
      },
      "emissiveFactor": [
        0,
        0,
        0
      ],
      "alphaMode": "OPAQUE",
      "doubleSided": false
    },
    {
      "name": "Fabric_(Light_Brown)",
      "pbrMetallicRoughness": {
        "baseColorFactor": [
          0.5,
          0.5,
          0.5,
          1
        ],
        "metallicFactor": 0,
        "roughnessFactor": 1
      },
      "emissiveFactor": [
        0,
        0,
        0
      ],
      "alphaMode": "OPAQUE",
      "doubleSided": false
    },
    {
      "name": "Paek_(Beige)",
      "pbrMetallicRoughness": {
        "baseColorFactor": [
          0.5,
          0.5,
          0.5,
          1
        ],
        "metallicFactor": 0,
        "roughnessFactor": 1
      },
      "emissiveFactor": [
        0,
        0,
        0
      ],
      "alphaMode": "OPAQUE",
      "doubleSided": false
    }
  ],
  "meshes": [
    {
      "name": "Body1_1",
      "primitives": [
        {
          "attributes": {
            "POSITION": 0,
            "NORMAL": 1,
            "TEXCOORD_0": 2
          },
          "indices": 3,
          "material": 0,
          "mode": 4
        }
      ]
    },
    {
      "name": "Body2_1",
      "primitives": [
        {
          "attributes": {
            "POSITION": 4,
            "NORMAL": 5,
            "TEXCOORD_0": 6
          },
          "indices": 7,
          "material": 1,
          "mode": 4
        }
      ]
    },
    {
      "name": "Body3_1",
      "primitives": [
        {
          "attributes": {
            "POSITION": 8,
            "NORMAL": 9,
            "TEXCOORD_0": 10
          },
          "indices": 11,
          "material": 2,
          "mode": 4
        }
      ]
    }
  ],
  "nodes": [
    {
      "name": "Body1",
      "mesh": 0
    },
    {
      "name": "Body2",
      "mesh": 1
    },
    {
      "name": "Body3",
      "mesh": 2
    }
  ],
  "scene": 0,
  "scenes": [
    {
      "nodes": [
        0,
        1,
        2
      ]
    }
  ]
}
