{
  "accessors": [
    {
      "name": "Body1_1_0_positions",
      "componentType": 5126,
      "count": 256,
      "min": [
        -72.40784454345703,
        -72.40784454345703,
        -84.56661224365234
      ],
      "max": [
        72.40784454345703,
        72.40784454345703,
        84.56664276123047
      ],
      "type": "VEC3",
      "bufferView": 0,
      "byteOffset": 0
    },
    {
      "name": "Body1_1_0_normals",
      "componentType": 5126,
      "count": 256,
      "min": [
        -0.9709824919700623,
        -1,
        -0.8408969044685364
      ],
      "max": [
        0.9709824919700623,
        1,
        0.8408969044685364
      ],
      "type": "VEC3",
      "bufferView": 1,
      "byteOffset": 0
    },
    {
      "name": "Body1_1_0_texcoords",
      "componentType": 5126,
      "count": 256,
      "min": [
        -2.3717079162597656,
        -0.8776019811630249
      ],
      "max": [
        2.3717079162597656,
        2.875
      ],
      "type": "VEC2",
      "bufferView": 2,
      "byteOffset": 0
    },
    {
      "name": "Body1_1_0_indices",
      "componentType": 5123,
      "count": 288,
      "min": [
        0
      ],
      "max": [
        255
      ],
      "type": "SCALAR",
      "bufferView": 3,
      "byteOffset": 0
    },
    {
      "name": "Body2_1_0_positions",
      "componentType": 5126,
      "count": 256,
      "min": [
        -72.40784454345703,
        -72.40784454345703,
        -66.8889389038086
      ],
      "max": [
        72.40784454345703,
        72.40784454345703,
        66.88896942138672
      ],
      "type": "VEC3",
      "bufferView": 0,
      "byteOffset": 3072
    },
    {
      "name": "Body2_1_0_normals",
      "componentType": 5126,
      "count": 256,
      "min": [
        -1,
        -1,
        -0.9308749437332153
      ],
      "max": [
        1,
        1,
        0.9308770298957825
      ],
      "type": "VEC3",
      "bufferView": 1,
      "byteOffset": 3072
    },
    {
      "name": "Body2_1_0_texcoords",
      "componentType": 5126,
      "count": 256,
      "min": [
        -2.3717079162597656,
        -0.8776019811630249
      ],
      "max": [
        2.3717079162597656,
        2.875
      ],
      "type": "VEC2",
      "bufferView": 2,
      "byteOffset": 2048
    },
    {
      "name": "Body2_1_0_indices",
      "componentType": 5123,
      "count": 288,
      "min": [
        0
      ],
      "max": [
        255
      ],
      "type": "SCALAR",
      "bufferView": 3,
      "byteOffset": 576
    },
    {
      "name": "Body3_1_0_positions",
      "componentType": 5126,
      "count": 256,
      "min": [
        -72.40784454345703,
        -72.40784454345703,
        -84.56661224365234
      ],
      "max": [
        72.40784454345703,
        72.40784454345703,
        84.56664276123047
      ],
      "type": "VEC3",
      "bufferView": 0,
      "byteOffset": 6144
    },
    {
      "name": "Body3_1_0_normals",
      "componentType": 5126,
      "count": 256,
      "min": [
        -1,
        -1,
        -0.9308749437332153
      ],
      "max": [
        1,
        1,
        0.9308770298957825
      ],
      "type": "VEC3",
      "bufferView": 1,
      "byteOffset": 6144
    },
    {
      "name": "Body3_1_0_texcoords",
      "componentType": 5126,
      "count": 256,
      "min": [
        -2.3717079162597656,
        -0.8776019811630249
      ],
      "max": [
        2.3717079162597656,
        2.875
      ],
      "type": "VEC2",
      "bufferView": 2,
      "byteOffset": 4096
    },
    {
      "name": "Body3_1_0_indices",
      "componentType": 5123,
      "count": 288,
      "min": [
        0
      ],
      "max": [
        255
      ],
      "type": "SCALAR",
      "bufferView": 3,
      "byteOffset": 1152
    }
  ],
  "asset": {
    "generator": "obj2gltf",
    "version": "2.0"
  },
  "buffers": [
    {
      "name": "square delta orb",
      "byteLength": 26304,
      "uri": "data:application/octet-stream;base64,"
    }
  ],
  "bufferViews": [
    {
      "name": "bufferView_0",
      "buffer": 0,
      "byteLength": 9216,
      "byteOffset": 0,
      "byteStride": 12,
      "target": 34962
    },
    {
      "name": "bufferView_1",
      "buffer": 0,
      "byteLength": 9216,
      "byteOffset": 9216,
      "byteStride": 12,
      "target": 34962
    },
    {
      "name": "bufferView_2",
      "buffer": 0,
      "byteLength": 6144,
      "byteOffset": 18432,
      "byteStride": 8,
      "target": 34962
    },
    {
      "name": "bufferView_3",
      "buffer": 0,
      "byteLength": 1728,
      "byteOffset": 24576,
      "target": 34963
    }
  ],
  "materials": [
    {
      "name": "Paek_(Beige)",
      "pbrMetallicRoughness": {
        "baseColorFactor": [
          0.5,
          0.5,
          0.5,
          1
        ],
        "metallicFactor": 0,
        "roughnessFactor": 1
      },
      "emissiveFactor": [
        0,
        0,
        0
      ],
      "alphaMode": "OPAQUE",
      "doubleSided": false
    },
    {
      "name": "Fabric_(Light_Brown)",
      "pbrMetallicRoughness": {
        "baseColorFactor": [
          0.5,
          0.5,
          0.5,
          1
        ],
        "metallicFactor": 0,
        "roughnessFactor": 1
      },
      "emissiveFactor": [
        0,
        0,
        0
      ],
      "alphaMode": "OPAQUE",
      "doubleSided": false
    },
    {
      "name": "Paper_(White)",
      "pbrMetallicRoughness": {
        "baseColorFactor": [
          0.5,
          0.5,
          0.5,
          1
        ],
        "metallicFactor": 0,
        "roughnessFactor": 1
      },
      "emissiveFactor": [
        0,
        0,
        0
      ],
      "alphaMode": "OPAQUE",
      "doubleSided": false
    }
  ],
  "meshes": [
    {
      "name": "Body1_1",
      "primitives": [
        {
          "attributes": {
            "POSITION": 0,
            "NORMAL": 1,
            "TEXCOORD_0": 2
          },
          "indices": 3,
          "material": 0,
          "mode": 4
        }
      ]
    },
    {
      "name": "Body2_1",
      "primitives": [
        {
          "attributes": {
            "POSITION": 4,
            "NORMAL": 5,
            "TEXCOORD_0": 6
          },
          "indices": 7,
          "material": 1,
          "mode": 4
        }
      ]
    },
    {
      "name": "Body3_1",
      "primitives": [
        {
          "attributes": {
            "POSITION": 8,
            "NORMAL": 9,
            "TEXCOORD_0": 10
          },
          "indices": 11,
          "material": 2,
          "mode": 4
        }
      ]
    }
  ],
  "nodes": [
    {
      "name": "Body1",
      "mesh": 0
    },
    {
      "name": "Body2",
      "mesh": 1
    },
    {
      "name": "Body3",
      "mesh": 2
    }
  ],
  "scene": 0,
  "scenes": [
    {
      "nodes": [
        0,
        1,
        2
      ]
    }
  ]
}
