{
  "accessors": [
    {
      "name": "Body1_1_0_positions",
      "componentType": 5126,
      "count": 32,
      "min": [
        -18.75,
        -21.650634765625,
        -30.618621826171875
      ],
      "max": [
        37.5,
        43.30126953125,
        30.618621826171875
      ],
      "type": "VEC3",
      "bufferView": 0,
      "byteOffset": 0
    },
    {
      "name": "Body1_1_0_normals",
      "componentType": 5126,
      "count": 32,
      "min": [
        -1,
        -0.8660265803337097,
        -1
      ],
      "max": [
        0.7071080207824707,
        0.8660265803337097,
        1
      ],
      "type": "VEC3",
      "bufferView": 1,
      "byteOffset": 0
    },
    {
      "name": "Body1_1_0_texcoords",
      "componentType": 5126,
      "count": 32,
      "min": [
        -2.3717079162597656,
        -0.8776019811630249
      ],
      "max": [
        2.3717079162597656,
        2.875
      ],
      "type": "VEC2",
      "bufferView": 2,
      "byteOffset": 0
    },
    {
      "name": "Body1_1_0_indices",
      "componentType": 5123,
      "count": 36,
      "min": [
        0
      ],
      "max": [
        31
      ],
      "type": "SCALAR",
      "bufferView": 3,
      "byteOffset": 0
    },
    {
      "name": "Body2_1_0_positions",
      "componentType": 5126,
      "count": 32,
      "min": [
        -37.5,
        -21.650634765625,
        -30.618621826171875
      ],
      "max": [
        18.75,
        43.30126953125,
        30.618621826171875
      ],
      "type": "VEC3",
      "bufferView": 0,
      "byteOffset": 384
    },
    {
      "name": "Body2_1_0_normals",
      "componentType": 5126,
      "count": 32,
      "min": [
        -0.7071080207824707,
        -0.8660265803337097,
        -1
      ],
      "max": [
        1,
        0.8660265803337097,
        1
      ],
      "type": "VEC3",
      "bufferView": 1,
      "byteOffset": 384
    },
    {
      "name": "Body2_1_0_texcoords",
      "componentType": 5126,
      "count": 32,
      "min": [
        -2.3717079162597656,
        -0.8776019811630249
      ],
      "max": [
        2.3717079162597656,
        2.875
      ],
      "type": "VEC2",
      "bufferView": 2,
      "byteOffset": 256
    },
    {
      "name": "Body2_1_0_indices",
      "componentType": 5123,
      "count": 36,
      "min": [
        0
      ],
      "max": [
        31
      ],
      "type": "SCALAR",
      "bufferView": 3,
      "byteOffset": 72
    },
    {
      "name": "Body3_1_0_positions",
      "componentType": 5126,
      "count": 32,
      "min": [
        -37.5,
        -21.650634765625,
        -30.618621826171875
      ],
      "max": [
        37.5,
        10.825318336486816,
        30.618621826171875
      ],
      "type": "VEC3",
      "bufferView": 0,
      "byteOffset": 768
    },
    {
      "name": "Body3_1_0_normals",
      "componentType": 5126,
      "count": 32,
      "min": [
        -1,
        -0.8164978623390198,
        -1
      ],
      "max": [
        1,
        0.8660265803337097,
        1
      ],
      "type": "VEC3",
      "bufferView": 1,
      "byteOffset": 768
    },
    {
      "name": "Body3_1_0_texcoords",
      "componentType": 5126,
      "count": 32,
      "min": [
        -2.3717079162597656,
        -0.8776019811630249
      ],
      "max": [
        2.3717079162597656,
        2.875
      ],
      "type": "VEC2",
      "bufferView": 2,
      "byteOffset": 512
    },
    {
      "name": "Body3_1_0_indices",
      "componentType": 5123,
      "count": 36,
      "min": [
        0
      ],
      "max": [
        31
      ],
      "type": "SCALAR",
      "bufferView": 3,
      "byteOffset": 144
    }
  ],
  "asset": {
    "generator": "obj2gltf",
    "version": "2.0"
  },
  "buffers": [
    {
      "name": "Toshie's jewel",
      "byteLength": 3288,
      "uri": "data:application/octet-stream;base64,"
    }
  ],
  "bufferViews": [
    {
      "name": "bufferView_0",
      "buffer": 0,
      "byteLength": 1152,
      "byteOffset": 0,
      "byteStride": 12,
      "target": 34962
    },
    {
      "name": "bufferView_1",
      "buffer": 0,
      "byteLength": 1152,
      "byteOffset": 1152,
      "byteStride": 12,
      "target": 34962
    },
    {
      "name": "bufferView_2",
      "buffer": 0,
      "byteLength": 768,
      "byteOffset": 2304,
      "byteStride": 8,
      "target": 34962
    },
    {
      "name": "bufferView_3",
      "buffer": 0,
      "byteLength": 216,
      "byteOffset": 3072,
      "target": 34963
    }
  ],
  "materials": [
    {
      "name": "Fabric_(Light_Brown)",
      "pbrMetallicRoughness": {
        "baseColorFactor": [
          0.5,
          0.5,
          0.5,
          1
        ],
        "metallicFactor": 0,
        "roughnessFactor": 1
      },
      "emissiveFactor": [
        0,
        0,
        0
      ],
      "alphaMode": "OPAQUE",
      "doubleSided": false
    },
    {
      "name": "Paek_(Beige)",
      "pbrMetallicRoughness": {
        "baseColorFactor": [
          0.5,
          0.5,
          0.5,
          1
        ],
        "metallicFactor": 0,
        "roughnessFactor": 1
      },
      "emissiveFactor": [
        0,
        0,
        0
      ],
      "alphaMode": "OPAQUE",
      "doubleSided": false
    },
    {
      "name": "Paper_(White)",
      "pbrMetallicRoughness": {
        "baseColorFactor": [
          0.5,
          0.5,
          0.5,
          1
        ],
        "metallicFactor": 0,
        "roughnessFactor": 1
      },
      "emissiveFactor": [
        0,
        0,
        0
      ],
      "alphaMode": "OPAQUE",
      "doubleSided": false
    }
  ],
  "meshes": [
    {
      "name": "Body1_1",
      "primitives": [
        {
          "attributes": {
            "POSITION": 0,
            "NORMAL": 1,
            "TEXCOORD_0": 2
          },
          "indices": 3,
          "material": 0,
          "mode": 4
        }
      ]
    },
    {
      "name": "Body2_1",
      "primitives": [
        {
          "attributes": {
            "POSITION": 4,
            "NORMAL": 5,
            "TEXCOORD_0": 6
          },
          "indices": 7,
          "material": 1,
          "mode": 4
        }
      ]
    },
    {
      "name": "Body3_1",
      "primitives": [
        {
          "attributes": {
            "POSITION": 8,
            "NORMAL": 9,
            "TEXCOORD_0": 10
          },
          "indices": 11,
          "material": 2,
          "mode": 4
        }
      ]
    }
  ],
  "nodes": [
    {
      "name": "Body1",
      "mesh": 0
    },
    {
      "name": "Body2",
      "mesh": 1
    },
    {
      "name": "Body3",
      "mesh": 2
    }
  ],
  "scene": 0,
  "scenes": [
    {
      "nodes": [
        0,
        1,
        2
      ]
    }
  ]
}
